<svg width="630" height="630" viewBox="0 0 630 630" fill="none" xmlns="http://www.w3.org/2000/svg">
<rect width="630" height="630" fill="white"/>
<circle cx="315" cy="315" r="245" fill="#F4929B" fill-opacity="0.3371"/>
<mask id="mask0_2534_48297" style="mask-type:alpha" maskUnits="userSpaceOnUse" x="70" y="70" width="490" height="490">
<circle cx="315" cy="315" r="245" fill="black"/>
</mask>
<g mask="url(#mask0_2534_48297)">
<path opacity="0.3" fill-rule="evenodd" clip-rule="evenodd" d="M699.867 437.149V306.174L662.922 233.657C658.141 224.272 646.657 220.54 637.273 225.321C635.708 226.119 634.26 227.128 632.972 228.322C622.531 237.99 606.407 237.99 595.966 228.322L564.451 199.137C543.244 179.497 511.965 175.348 486.372 188.779C459.634 202.81 427.71 202.81 400.973 188.779L377.179 176.292C364.762 169.776 350.948 166.372 336.925 166.372C323.641 166.372 311.292 159.537 304.238 148.281L285.289 118.042C275.323 102.139 254.351 97.3261 238.448 107.292C233.662 110.292 229.698 114.437 226.917 119.354L209.233 150.61C196.419 173.259 169.929 184.4 144.779 177.717C119.737 171.064 93.3994 182.448 81.0895 205.248L16.6812 324.541V429.988L699.867 437.149Z" fill="url(#paint0_linear_2534_48297)"/>
<path fill-rule="evenodd" clip-rule="evenodd" d="M21.9097 628.441V382.266L45.9576 334.121C51.3198 323.385 64.3695 319.03 75.105 324.392C79.9733 326.824 83.7519 330.993 85.6936 336.077C90.1414 347.722 103.187 353.556 114.831 349.108C119.906 347.17 124.111 343.466 126.675 338.678L144.049 306.23C155.381 285.067 181.723 277.097 202.887 288.429C211.095 292.824 217.675 299.738 221.658 308.154L225.475 316.22C234.506 335.303 257.297 343.451 276.38 334.42C285.802 329.961 292.994 321.847 296.291 311.958L330.138 210.444C333.656 199.891 345.063 194.188 355.617 197.707C361.258 199.588 365.78 203.866 367.971 209.394C371.807 219.074 382.763 223.811 392.442 219.975C397.872 217.823 401.997 213.277 403.613 207.664L415.869 165.087C420.014 150.688 435.046 142.375 449.445 146.52C458.681 149.179 465.821 156.525 468.215 165.833L486.756 237.904C491.49 256.308 510.248 267.39 528.652 262.655C538.552 260.108 546.807 253.291 551.18 244.051C561.822 221.566 588.676 211.964 611.162 222.606C620.574 227.06 628.152 234.639 632.606 244.051L673.32 330.076V628.441H21.9097Z" fill="url(#paint1_linear_2534_48297)"/>
<path style="mix-blend-mode:multiply" opacity="0.5" fill-rule="evenodd" clip-rule="evenodd" d="M680.794 609.362V554.798L639.614 518.081C628.333 508.023 612.273 505.349 598.342 511.209C583.757 517.345 567.315 517.345 552.73 511.209L522.906 498.664C490.601 485.074 453.406 490.719 426.587 513.282L417.648 520.803C388.803 545.072 345.747 541.362 321.478 512.517C321.366 512.384 321.255 512.25 321.144 512.116L288.052 472.168C275.838 457.423 253.982 455.371 239.237 467.586C237.064 469.385 235.12 471.443 233.446 473.714L230.802 477.3C220.279 491.576 200.175 494.619 185.899 484.095C184.042 482.727 182.339 481.162 180.817 479.428C165.641 462.136 140.174 458.381 120.653 470.557L96.8027 485.433C66.7922 504.152 29.8249 507.982 -3.38513 495.811C-35.9344 483.883 -72.3787 490.292 -98.9052 512.61L-161.273 565.082V609.362H680.794Z" fill="url(#paint2_linear_2534_48297)"/>
<path d="M195.796 471.25C197.984 472.864 200.287 473.288 202.705 472.523C205.113 471.771 207.401 469.926 209.569 466.988C214.079 460.874 214.04 456.125 209.451 452.74C207.526 451.319 204.839 450.08 201.391 449.023L204.988 444.147C207.93 444.87 210.789 446.255 213.565 448.302C217.553 451.245 219.713 454.702 220.046 458.673C220.37 462.658 218.862 466.913 215.523 471.439C213.421 474.289 211.062 476.401 208.447 477.773C205.823 479.158 203.122 479.704 200.345 479.413C197.546 479.124 194.84 478.016 192.227 476.088C189.564 474.124 187.363 471.506 185.625 468.235L190.987 464.893C191.652 466.137 192.37 467.323 193.141 468.451C193.911 469.579 194.796 470.512 195.796 471.25Z" fill="black"/>
<path d="M161.848 419.986C166.219 416.421 170.462 414.765 174.577 415.018C178.692 415.27 182.4 417.42 185.699 421.465C188.998 425.511 190.357 429.574 189.777 433.656C189.196 437.738 186.709 441.571 182.314 445.155C177.919 448.739 173.682 450.39 169.603 450.108C165.502 449.824 161.797 447.653 158.488 443.595C155.179 439.538 153.819 435.485 154.407 431.437C154.985 427.377 157.465 423.56 161.848 419.986ZM177.563 439.256C180.513 436.85 182.278 434.479 182.858 432.142C183.438 429.804 182.82 427.522 181.003 425.295C177.36 420.828 172.571 421.014 166.635 425.855C160.687 430.706 159.525 435.353 163.148 439.796C164.964 442.023 167.087 443.089 169.515 442.993C171.931 442.908 174.614 441.662 177.563 439.256Z" fill="black"/>
<path d="M161.393 383.022L139.796 400.781L139.876 400.975C144.792 398.633 148.091 397.116 149.772 396.424L164.426 390.393L166.883 396.362L135.376 409.329L131.633 400.235L152.658 382.862L152.605 382.733L125.256 384.739L121.513 375.645L153.021 362.678L155.584 368.906L140.671 375.044C139.967 375.334 139.152 375.66 138.226 376.025C137.295 376.374 134.811 377.279 130.775 378.738L130.855 378.932L158.874 376.902L161.393 383.022Z" fill="black"/>
<path d="M147.973 332.552L121.96 342.807L121.976 343.016C127.375 342.299 130.98 341.87 132.792 341.729L148.592 340.498L149.093 346.934L115.125 349.58L114.361 339.776L139.71 329.712L139.699 329.573L113.059 323.07L112.295 313.265L146.264 310.618L146.787 317.333L130.709 318.586C129.95 318.645 129.074 318.705 128.081 318.767C127.088 318.813 124.446 318.91 120.156 319.057L120.173 319.267L147.459 325.953L147.973 332.552Z" fill="black"/>
<path d="M137.651 260.522C143.159 261.73 147.094 264.025 149.454 267.406C151.814 270.787 152.435 275.026 151.316 280.125C150.198 285.224 147.859 288.815 144.301 290.898C140.742 292.98 136.193 293.414 130.654 292.199C125.115 290.984 121.188 288.691 118.874 285.32C116.547 281.931 115.945 277.679 117.067 272.565C118.189 267.45 120.518 263.866 124.055 261.81C127.595 259.74 132.127 259.31 137.651 260.522ZM132.323 284.811C136.041 285.626 138.995 285.535 141.187 284.536C143.378 283.538 144.782 281.635 145.398 278.827C146.633 273.197 143.509 269.561 136.028 267.92C128.531 266.275 124.168 268.253 122.94 273.853C122.324 276.66 122.808 278.986 124.392 280.828C125.961 282.667 128.605 283.995 132.323 284.811Z" fill="black"/>
<path d="M173.87 223.179L169.543 231.277L139.825 232.204L139.726 232.389C143.88 234.274 146.814 235.674 148.527 236.589L162.668 244.145L159.626 249.838L129.575 233.782L133.869 225.745L163.351 224.719L163.427 224.575C159.412 222.694 156.596 221.321 154.979 220.457L140.755 212.857L143.819 207.123L173.87 223.179Z" fill="black"/>
<path d="M190.085 156.432L195.637 151.7L208.923 185.144L202.928 190.254L172.029 171.821L177.581 167.09L195.611 178.363C196.659 179.042 197.843 179.869 199.165 180.845C200.489 181.799 201.388 182.483 201.862 182.895C201.065 181.696 199.885 179.415 198.324 176.05L190.085 156.432Z" fill="black"/>
<path d="M247.53 142.451C250.007 147.518 250.655 152.026 249.474 155.976C248.292 159.926 245.357 163.048 240.667 165.341C235.977 167.634 231.711 168.034 227.868 166.541C224.025 165.047 220.858 161.754 218.367 156.659C215.876 151.565 215.231 147.063 216.433 143.155C217.642 139.226 220.599 136.112 225.302 133.812C230.006 131.512 234.262 131.108 238.07 132.601C241.893 134.088 245.046 137.371 247.53 142.451ZM225.191 153.374C226.863 156.794 228.772 159.051 230.916 160.147C233.06 161.243 235.423 161.16 238.005 159.898C243.184 157.366 244.09 152.659 240.726 145.778C237.355 138.883 233.094 136.695 227.943 139.213C225.361 140.476 223.841 142.3 223.382 144.686C222.916 147.059 223.519 149.955 225.191 153.374Z" fill="black"/>
<path d="M270.082 153.57L261.774 120.527L268.78 118.766L277.089 151.809L270.082 153.57Z" fill="black"/>
<path d="M305.832 119.179C303.118 119.347 301.08 120.5 299.718 122.638C298.354 124.762 297.785 127.645 298.01 131.289C298.477 138.872 301.557 142.488 307.248 142.137C309.636 141.99 312.491 141.215 315.814 139.811L316.186 145.859C313.467 147.194 310.386 147.968 306.943 148.18C301.997 148.485 298.121 147.222 295.315 144.391C292.509 141.544 290.933 137.314 290.587 131.7C290.369 128.165 290.822 125.032 291.945 122.3C293.068 119.554 294.787 117.401 297.104 115.842C299.435 114.266 302.221 113.378 305.462 113.178C308.765 112.974 312.133 113.568 315.565 114.96L313.601 120.965C312.292 120.439 310.98 119.99 309.665 119.62C308.35 119.25 307.073 119.103 305.832 119.179Z" fill="black"/>
<path d="M350.693 151.137L331.31 148.082L336.615 114.426L355.998 117.481L355.077 123.328L342.83 121.398L341.665 128.788L353.06 130.584L352.138 136.431L340.743 134.635L339.375 143.314L351.622 145.244L350.693 151.137Z" fill="black"/>
<path d="M411.157 144.267C408.768 142.969 406.428 142.866 404.139 143.956C401.857 145.033 399.845 147.176 398.103 150.385C394.478 157.062 395.171 161.76 400.182 164.481C402.284 165.623 405.116 166.48 408.677 167.052L405.786 172.377C402.772 172.066 399.75 171.088 396.719 169.443C392.363 167.078 389.747 163.951 388.87 160.063C388.001 156.162 388.908 151.739 391.592 146.797C393.282 143.684 395.328 141.267 397.728 139.548C400.137 137.815 402.736 136.901 405.527 136.808C408.339 136.708 411.172 137.433 414.026 138.983C416.934 140.562 419.474 142.851 421.646 145.851L416.796 149.9C415.966 148.76 415.091 147.684 414.173 146.673C413.255 145.662 412.249 144.86 411.157 144.267Z" fill="black"/>
<path d="M451.843 190.366C448.005 194.499 444.03 196.723 439.92 197.04C435.809 197.357 431.841 195.739 428.016 192.186C424.191 188.634 422.285 184.796 422.297 180.673C422.31 176.55 424.246 172.411 428.105 168.256C431.964 164.1 435.933 161.882 440.012 161.599C444.113 161.316 448.082 162.956 451.919 166.519C455.755 170.082 457.661 173.909 457.636 177.999C457.622 182.1 455.691 186.222 451.843 190.366ZM433.623 173.444C431.032 176.233 429.611 178.825 429.359 181.22C429.106 183.615 430.033 185.79 432.139 187.746C436.363 191.669 441.081 190.824 446.293 185.212C451.516 179.588 452.027 174.826 447.827 170.924C445.721 168.968 443.472 168.205 441.08 168.634C438.699 169.052 436.213 170.655 433.623 173.444Z" fill="black"/>
<path d="M457.385 226.915L476.33 206.35L476.224 206.169C471.678 209.166 468.619 211.123 467.05 212.04L453.365 220.032L450.11 214.458L479.531 197.275L484.491 205.767L466.059 225.87L466.129 225.991L492.941 220.236L497.901 228.728L468.48 245.912L465.083 240.096L479.009 231.963C479.667 231.579 480.429 231.143 481.295 230.655C482.169 230.18 484.505 228.942 488.302 226.94L488.196 226.759L460.723 232.63L457.385 226.915Z" fill="black"/>
<path d="M477.631 275.055L501.983 261.315L501.938 261.11C496.69 262.564 493.178 263.485 491.402 263.875L475.923 267.27L474.54 260.965L507.82 253.664L509.927 263.27L486.206 276.729L486.236 276.866L513.518 279.637L515.625 289.244L482.345 296.544L480.902 289.966L496.654 286.51C497.398 286.347 498.257 286.166 499.231 285.968C500.209 285.786 502.812 285.326 507.041 284.589L506.996 284.384L479.049 281.52L477.631 275.055Z" fill="black"/>
<path d="M515.105 342.858L493.11 341.354C490.599 341.182 488.436 340.466 486.623 339.205C484.808 337.959 483.47 336.241 482.607 334.048C481.745 331.856 481.413 329.31 481.611 326.412C481.91 322.041 483.258 318.722 485.656 316.457C488.069 314.193 491.221 313.193 495.111 313.46L517.013 314.958L516.522 322.142L495.713 320.719C493.093 320.54 491.135 320.935 489.838 321.905C488.542 322.876 487.81 324.578 487.644 327.011C487.483 329.367 487.978 331.114 489.131 332.252C490.297 333.406 492.198 334.073 494.834 334.254L515.596 335.674L515.105 342.858Z" fill="black"/>
<path d="M468.377 384.055L471.383 375.379L500.59 369.814L500.659 369.616C496.261 368.404 493.145 367.48 491.31 366.844L476.16 361.595L478.273 355.495L510.467 366.651L507.483 375.261L478.526 380.888L478.473 381.042C482.733 382.272 485.729 383.187 487.461 383.787L502.699 389.067L500.57 395.211L468.377 384.055Z" fill="black"/>
<path d="M460.455 398.323L489.643 415.9L485.916 422.089L456.728 404.512L460.455 398.323Z" fill="black"/>
<path d="M438.877 428.015L443.626 422.571L464.771 441.015L470.852 434.043L475.383 437.995L458.471 457.384L453.94 453.432L460.022 446.459L438.877 428.015Z" fill="black"/>
<path d="M426.821 465.817L429.429 481.326L423.166 485.947L419.907 462.49L412.034 451.819L417.811 447.558L425.544 458.041L447.133 468.266L440.832 472.915L426.821 465.817Z" fill="black"/>
<path fill-rule="evenodd" clip-rule="evenodd" d="M378.565 271.383L376.258 230.682L377.077 229.938C378.052 228.872 378.789 227.611 379.238 226.238C379.687 224.865 379.838 223.412 379.681 221.976C379.648 220.877 379.395 219.795 378.936 218.795C378.478 217.795 377.823 216.897 377.012 216.155C376.2 215.412 375.247 214.84 374.21 214.473C373.174 214.105 372.074 213.949 370.975 214.014C368.803 214.025 366.712 214.848 365.115 216.321C363.518 217.794 362.53 219.811 362.344 221.976C362.212 223.405 362.383 224.846 362.844 226.205C363.306 227.563 364.048 228.81 365.023 229.863L365.804 230.607L364.055 271.532L378.565 271.383ZM232.986 296.049C229.114 296.112 225.291 296.938 221.738 298.479C218.185 300.021 214.97 302.248 212.278 305.033C209.587 307.818 207.47 311.107 206.051 314.71C204.631 318.314 203.936 322.162 204.005 326.035V350.218C203.936 354.09 204.631 357.939 206.051 361.542C207.47 365.146 209.587 368.435 212.278 371.22C214.97 374.005 218.185 376.232 221.738 377.773C225.291 379.315 229.114 380.141 232.986 380.204H396.014C399.886 380.141 403.709 379.315 407.262 377.773C410.815 376.232 414.03 374.005 416.722 371.22C419.413 368.435 421.53 365.146 422.949 361.542C424.369 357.939 425.064 354.09 424.995 350.218V326.035C425.064 322.162 424.369 318.314 422.949 314.71C421.53 311.107 419.413 307.818 416.722 305.033C414.03 302.248 410.815 300.021 407.262 298.479C403.709 296.938 399.886 296.112 396.014 296.049H232.986Z" fill="#373737" stroke="white" stroke-width="4.68768"/>
<path fill-rule="evenodd" clip-rule="evenodd" d="M364.801 263.124H264.351C251.467 263.339 239.196 268.659 230.232 277.916C221.268 287.173 216.345 299.609 216.544 312.493V353.008C216.383 366.915 221.152 380.429 230.005 391.155C238.858 401.881 251.224 409.126 264.909 411.604C297.848 417.185 331.49 417.185 364.429 411.604C378.114 409.126 390.48 401.881 399.333 391.155C408.186 380.429 412.955 366.915 412.794 353.008V312.493C412.892 306.098 411.728 299.746 409.368 293.802C407.008 287.858 403.498 282.437 399.04 277.851C394.582 273.265 389.263 269.604 383.388 267.076C377.513 264.549 371.196 263.206 364.801 263.124Z" fill="#1E1E1E" stroke="white" stroke-width="4.68768"/>
<path fill-rule="evenodd" clip-rule="evenodd" d="M352.112 279.903H276.886C256.535 279.903 241.616 293.184 241.616 312.493V355.203C241.529 365.184 245.093 374.852 251.636 382.389C258.18 389.926 267.252 394.812 277.146 396.127C301.963 399.029 327.034 399.029 351.851 396.127C361.745 394.812 370.818 389.926 377.361 382.389C383.904 374.852 387.468 365.184 387.381 355.203V312.493C387.381 293.184 372.462 279.903 352.112 279.903Z" fill="black" stroke="white" stroke-width="4.68768"/>
<path fill-rule="evenodd" clip-rule="evenodd" d="M285.37 351.483H342.776C342.776 351.483 339.837 370.903 314.501 370.903C290.393 370.717 285.37 351.483 285.37 351.483Z" fill="white"/>
<circle cx="282.992" cy="316.45" r="14.6544" fill="white"/>
<circle cx="348.204" cy="316.45" r="14.6544" fill="white"/>
<circle cx="284.825" cy="313.153" r="8.4263" fill="black"/>
<circle cx="350.037" cy="313.153" r="8.4263" fill="black"/>
<circle cx="288.123" cy="308.39" r="3.66361" fill="white"/>
<circle cx="353.334" cy="308.39" r="3.66361" fill="white"/>
</g>
<defs>
<linearGradient id="paint0_linear_2534_48297" x1="358.274" y1="303.128" x2="352.169" y2="235.562" gradientUnits="userSpaceOnUse">
<stop stop-color="#F89096"/>
<stop offset="1" stop-color="#B1B4E5"/>
</linearGradient>
<linearGradient id="paint1_linear_2534_48297" x1="449.33" y1="290.888" x2="239.491" y2="495.158" gradientUnits="userSpaceOnUse">
<stop stop-color="#88D1F1"/>
<stop offset="1" stop-color="#B1B5E5"/>
</linearGradient>
<linearGradient id="paint2_linear_2534_48297" x1="195.846" y1="535.131" x2="138.885" y2="502.235" gradientUnits="userSpaceOnUse">
<stop stop-color="#F89096"/>
<stop offset="1" stop-color="#B1B4E5"/>
</linearGradient>
</defs>
</svg>
